# File created by Blade
# Date/Time:  Tue Jan 27 20:07:51 2015
# Frame Rate: 120.000 fps
#------------------------------------------------------
:FULLY-SPECIFIED
:DEGREES
3589
root 4.627489 33.705550 -5.408085 27.623987 -33.762910 -26.929946
Spine 2.179210 23.904613 -1.222069
Head -4.438285 -0.042270 12.770981
LeftShoulder -14.372624 -1.276132 31.331710
LeftArm -13.158356 -40.486351 -68.998364
LeftForeArm -53.680850 -0.000000 124.901653
LeftHand 9.878951 -0.000000 -44.234276
LeftHandThumb1 -26.253704 0.000000 33.147579
RightShoulder -10.980697 -5.106512 -21.370997
RightArm 24.868414 -37.344436 88.835283
RightForeArm -18.177747 -0.000000 16.372423
RightHand 17.649418 -0.000000 2.629507
RightHandThumb1 -24.326973 -0.000000 -32.862282
LeftUpLeg -3.249665 20.154432 11.309606
LeftLeg -8.603115 -0.000000 0.000000
LeftFoot -15.659522 18.748498 -16.527468
LeftToeBase 19.736191 -0.000000 -0.000000
RightUpLeg 22.671625 -64.106991 -40.800330
RightLeg 102.181516 -0.000000 -0.000000
RightFoot 26.727248 -29.764294 23.687731
RightToeBase 15.863991 -0.000000 -0.000000
3590
root 4.630463 33.702715 -5.398279 27.634800 -33.760888 -26.919493
Spine 2.170799 23.904749 -1.226156
Head -4.465444 -0.052680 12.795203
LeftShoulder -14.369605 -1.258749 31.344235
LeftArm -13.166603 -40.340075 -69.016900
LeftForeArm -53.642623 -0.000000 124.883272
LeftHand 10.020155 -0.000000 -43.885127
LeftHandThumb1 -26.253704 0.000000 33.147579
RightShoulder -10.991537 -5.099501 -21.368603
RightArm 24.843312 -37.317438 88.867208
RightForeArm -18.217211 -0.000000 16.386570
RightHand 17.619512 -0.000000 2.652893
RightHandThumb1 -24.326973 -0.000000 -32.862282
LeftUpLeg -3.238494 20.214590 11.282773
LeftLeg -8.641745 -0.000000 0.000000
LeftFoot -15.767609 18.609651 -16.757348
LeftToeBase 20.130649 -0.000000 -0.000000
RightUpLeg 22.586003 -63.978444 -40.679246
RightLeg 101.612802 -0.000000 -0.000000
RightFoot 26.706013 -29.665932 23.905579
RightToeBase 16.260488 -0.000000 -0.000000
3591
root 4.635582 33.699591 -5.388510 27.649893 -33.761303 -26.909002
Spine 2.160457 23.902854 -1.226604
Head -4.479443 -0.072805 12.822398
LeftShoulder -14.330650 -1.258830 31.350892
LeftArm -13.146635 -40.391392 -69.079115
LeftForeArm -53.596954 -0.000000 124.872342
LeftHand 10.147393 -0.000000 -44.044914
LeftHandThumb1 -26.253704 0.000000 33.147579
RightShoulder -10.998888 -5.042735 -21.386100
RightArm 24.812118 -37.397663 88.863162
RightForeArm -18.138505 0.000000 16.376805
RightHand 17.618604 -0.000000 2.582103
RightHandThumb1 -24.326973 -0.000000 -32.862282
LeftUpLeg -3.241415 20.232876 11.245113
LeftLeg -8.659155 -0.000000 0.000000
LeftFoot -15.657839 18.577939 -16.546400
LeftToeBase 20.112074 -0.000000 -0.000000
RightUpLeg 22.496452 -63.879009 -40.560825
RightLeg 101.001674 -0.000000 -0.000000
RightFoot 26.840479 -29.518142 23.925920
RightToeBase 16.049226 -0.000000 -0.000000
3592
root 4.639662 33.696385 -5.377801 27.663463 -33.757976 -26.887604
Spine 2.133106 23.888570 -1.248522
Head -4.467339 -0.098957 12.872646
LeftShoulder -14.309991 -1.261112 31.356479
LeftArm -13.112430 -40.420231 -69.105829
LeftForeArm -53.560160 0.000000 124.852558
LeftHand 10.028132 0.000000 -44.122334
LeftHandThumb1 -26.253704 0.000000 33.147579
RightShoulder -10.990939 -5.039531 -21.383811
RightArm 24.796852 -37.360709 88.899884
RightForeArm -18.166728 -0.000000 16.359616
RightHand 17.621645 -0.000000 2.696938
RightHandThumb1 -24.326973 -0.000000 -32.862282
LeftUpLeg -3.244647 20.217165 11.208212
LeftLeg -8.685669 -0.000000 0.000000
LeftFoot -15.655916 18.583742 -16.549220
LeftToeBase 20.100361 -0.000000 -0.000000
RightUpLeg 22.450632 -63.809194 -40.497569
RightLeg 100.351357 -0.000000 -0.000000
RightFoot 26.972492 -29.413473 23.943335
RightToeBase 15.858676 -0.000000 -0.000000
3593
root 4.645417 33.694267 -5.367598 27.697309 -33.773837 -26.861723
Spine 2.087241 23.891810 -1.294258
Head -4.469725 -0.116309 12.918664
LeftShoulder -14.315422 -1.249181 31.351915
LeftArm -13.038317 -40.421914 -69.153332
LeftForeArm -53.507695 0.000000 124.842239
LeftHand 9.926004 -0.000000 -44.123301
LeftHandThumb1 -26.253704 0.000000 33.147579
RightShoulder -10.993230 -5.059947 -21.370135
RightArm 24.831837 -37.398308 88.874953
RightForeArm -18.151083 -0.000000 16.357291
RightHand 17.655748 -0.000000 2.705019
RightHandThumb1 -24.326973 -0.000000 -32.862282
LeftUpLeg -3.277634 20.240761 11.146483
LeftLeg -8.700268 -0.000000 0.000000
LeftFoot -15.640088 18.568573 -16.539843
LeftToeBase 20.058279 -0.000000 -0.000000
RightUpLeg 22.361801 -63.767277 -40.418750
RightLeg 99.659056 -0.000000 -0.000000
RightFoot 27.133066 -29.361977 23.876233
RightToeBase 15.825555 -0.000000 -0.000000
3594
root 4.649980 33.692452 -5.357312 27.723088 -33.779690 -26.845779
Spine 2.061880 23.884791 -1.321857
Head -4.464703 -0.112898 12.975657
LeftShoulder -14.334774 -1.268817 31.357544
LeftArm -13.012040 -40.408787 -69.157033
LeftForeArm -53.639562 -0.000000 124.798502
LeftHand 9.907911 0.000000 -44.325476
LeftHandThumb1 -26.253704 0.000000 33.147579
RightShoulder -11.000774 -5.044308 -21.355005
RightArm 24.830061 -37.404302 88.888867
RightForeArm -18.165758 -0.000000 16.325250
RightHand 17.744045 0.000000 2.725319
RightHandThumb1 -24.326973 -0.000000 -32.862282
LeftUpLeg -3.297986 20.284339 11.103099
LeftLeg -8.722119 -0.000000 0.000000
LeftFoot -15.598930 18.570390 -16.495755
LeftToeBase 19.668170 -0.000000 -0.000000
RightUpLeg 22.293795 -63.698491 -40.337714
RightLeg 98.937682 -0.000000 -0.000000
RightFoot 27.195902 -29.277516 23.930881
RightToeBase 16.003648 -0.000000 -0.000000
3595
root 4.654349 33.691772 -5.346755 27.765471 -33.789986 -26.846844
Spine 2.027638 23.901891 -1.342365
Head -4.462529 -0.138477 13.038458
LeftShoulder -14.349607 -1.277645 31.351878
LeftArm -12.984202 -40.371343 -69.175633
LeftForeArm -53.627370 -0.000000 124.807369
LeftHand 9.896490 -0.000000 -44.327850
LeftHandThumb1 -26.253704 0.000000 33.147579
RightShoulder -11.003007 -5.052888 -21.339030
RightArm 24.820771 -37.367138 88.913489
RightForeArm -18.117045 0.000000 16.319476
RightHand 17.811395 -0.000000 2.905980
RightHandThumb1 -24.326973 -0.000000 -32.862282
LeftUpLeg -3.319742 20.294745 11.070842
LeftLeg -8.729579 -0.000000 0.000000
LeftFoot -15.619104 18.521958 -16.533266
LeftToeBase 19.961863 -0.000000 -0.000000
RightUpLeg 22.234780 -63.647007 -40.254496
RightLeg 98.175304 -0.000000 -0.000000
RightFoot 27.315052 -29.222534 23.938893
RightToeBase 15.499711 -0.000000 -0.000000
3596
root 4.657765 33.691274 -5.336937 27.812491 -33.796547 -26.850982
Spine 1.989467 23.928736 -1.364587
Head -4.468900 -0.193315 13.091494
LeftShoulder -14.328212 -1.384001 31.335371
LeftArm -13.037940 -40.410419 -69.076559
LeftForeArm -53.683372 0.000000 124.834443
LeftHand 9.623471 -0.000000 -44.549995
LeftHandThumb1 -26.253704 0.000000 33.147579
RightShoulder -11.019951 -5.066083 -21.319465
RightArm 24.804320 -37.355723 88.946583
RightForeArm -18.188148 0.000000 16.324554
RightHand 17.799651 -0.000000 2.874435
RightHandThumb1 -24.326973 -0.000000 -32.862282
LeftUpLeg -3.348236 20.331540 11.042388
LeftLeg -8.737912 -0.000000 0.000000
LeftFoot -15.610099 18.488888 -16.515804
LeftToeBase 19.991223 -0.000000 -0.000000
RightUpLeg 22.229033 -63.624573 -40.210844
RightLeg 97.393358 -0.000000 -0.000000
RightFoot 27.371748 -29.173424 23.796849
RightToeBase 15.502972 -0.000000 -0.000000
3597
root 4.664730 33.691533 -5.328800 27.838987 -33.787827 -26.848025
Spine 1.992484 23.944532 -1.359356
Head -4.471526 -0.258064 13.132896
LeftShoulder -14.307982 -1.421749 31.319998
LeftArm -13.046256 -40.411166 -69.088881
LeftForeArm -53.733500 -0.000000 124.858198
LeftHand 9.618632 0.000000 -44.555632
LeftHandThumb1 -26.253704 0.000000 33.147579
RightShoulder -11.029191 -5.062911 -21.317829
RightArm 24.786903 -37.355872 88.960008
RightForeArm -18.103857 0.000000 16.361578
RightHand 17.735206 -0.000000 2.981099
RightHandThumb1 -24.326973 -0.000000 -32.862282
LeftUpLeg -3.377513 20.339288 11.011693
LeftLeg -8.739364 -0.000000 0.000000
LeftFoot -15.582214 18.496973 -16.469332
LeftToeBase 19.885945 -0.000000 -0.000000
RightUpLeg 22.280252 -63.614670 -40.221431
RightLeg 96.598182 -0.000000 -0.000000
RightFoot 27.346406 -29.231824 23.760113
RightToeBase 15.420401 -0.000000 -0.000000
3598
root 4.669698 33.691160 -5.320831 27.870370 -33.782876 -26.854097
Spine 1.985430 23.980091 -1.364625
Head -4.478408 -0.312857 13.202972
LeftShoulder -14.286141 -1.437789 31.330420
LeftArm -13.042319 -40.376580 -69.132881
LeftForeArm -53.737658 -0.000000 124.882084
LeftHand 9.660833 0.000000 -44.550807
LeftHandThumb1 -26.253704 0.000000 33.147579
RightShoulder -11.045143 -5.049574 -21.307782
RightArm 24.739209 -37.368119 88.999193
RightForeArm -18.084476 0.000000 16.379051
RightHand 17.699581 -0.000000 2.919413
RightHandThumb1 -24.326973 -0.000000 -32.862282
LeftUpLeg -3.392943 20.368670 10.992299
LeftLeg -8.758236 -0.000000 0.000000
LeftFoot -15.567115 18.467646 -16.466854
LeftToeBase 19.891293 -0.000000 -0.000000
RightUpLeg 22.361412 -63.604059 -40.245140
RightLeg 95.784374 -0.000000 -0.000000
RightFoot 27.176668 -29.278160 23.856072
RightToeBase 15.467064 -0.000000 -0.000000
